<?xml version="1.0" standalone="no"?>
<!DOCTYPE svg PUBLIC "-//W3C//DTD SVG 20010904//EN"
 "http://www.w3.org/TR/2001/REC-SVG-20010904/DTD/svg10.dtd">
<svg version="1.0" xmlns="http://www.w3.org/2000/svg"
 width="512.000000pt" height="512.000000pt" viewBox="0 0 512.000000 512.000000"
 preserveAspectRatio="xMidYMid meet">
<metadata>
Created by potrace 1.14, written by Peter Selinger 2001-2017
</metadata>
<g transform="translate(0.000000,512.000000) scale(0.100000,-0.100000)"
fill="#000000" stroke="none">
<path d="M1160 4920 l0 -200 -313 0 c-280 0 -322 -2 -391 -20 -113 -29 -190
-73 -276 -160 -87 -86 -131 -163 -160 -276 -19 -75 -20 -118 -19 -1908 0
-1769 1 -1833 19 -1904 28 -108 75 -187 160 -272 85 -86 162 -131 272 -160 69
-18 124 -19 1091 -19 l1017 -1 0 200 0 200 -992 0 c-620 0 -1006 4 -1028 10
-46 13 -95 56 -119 105 -20 39 -20 64 -21 1841 0 1997 -6 1840 66 1909 19 19
52 39 72 45 21 6 160 10 330 10 l292 0 0 -200 0 -200 800 0 800 0 0 200 0 200
313 0 c183 0 327 -4 349 -10 48 -14 114 -80 127 -127 6 -21 11 -89 11 -150 l0
-113 200 0 201 0 -2 138 c-1 97 -7 158 -20 210 -50 197 -210 366 -399 422 -94
28 -95 28 -452 29 l-328 1 0 200 0 200 -800 0 -800 0 0 -200z m1200 -400 l0
-200 -400 0 -400 0 0 200 0 200 400 0 400 0 0 -200z"/>
<path d="M3120 3400 l0 -200 200 0 200 0 -2 -207 -3 -207 -35 -8 c-19 -4 -50
-10 -69 -13 -109 -18 -333 -113 -451 -191 -37 -24 -70 -44 -74 -44 -6 0 -90
86 -223 228 l-50 53 -84 -79 c-46 -44 -112 -106 -145 -139 l-62 -58 105 -110
c57 -61 120 -126 140 -146 l35 -36 -52 -78 c-80 -119 -171 -328 -194 -450 -4
-16 -9 -41 -11 -55 -18 -86 -23 -163 -20 -295 3 -165 24 -283 77 -434 40 -117
144 -308 203 -377 208 -243 367 -363 607 -458 90 -35 238 -74 318 -83 126 -14
421 -6 450 12 3 2 25 6 48 10 107 16 347 118 464 197 49 33 115 86 158 125 19
17 44 40 55 50 89 80 206 245 275 388 98 201 139 394 135 635 -4 276 -77 511
-230 745 l-45 68 77 81 c43 44 106 110 141 146 l63 65 -64 60 c-35 33 -101 95
-147 138 l-83 79 -49 -54 c-28 -29 -88 -93 -136 -142 -82 -85 -87 -88 -109
-75 -113 71 -216 129 -227 129 -6 0 -16 4 -21 9 -26 24 -286 101 -352 104 -10
0 -13 49 -13 209 l0 208 200 0 200 0 0 200 0 200 -600 0 -600 0 0 -200z m840
-1029 c126 -36 193 -65 290 -125 133 -83 237 -189 321 -326 65 -107 111 -220
125 -310 3 -19 8 -39 11 -44 3 -5 7 -62 9 -127 9 -293 -91 -547 -296 -749
-197 -195 -444 -293 -725 -286 -268 7 -497 105 -685 296 -196 198 -292 440
-286 725 6 275 104 498 305 694 139 135 302 220 498 261 121 25 327 20 433 -9z"/>
<path d="M3520 1658 l0 -343 229 -228 229 -229 142 142 142 142 -171 171 -171
170 0 259 0 258 -200 0 -200 0 0 -342z"/>
<path d="M760 2960 l0 -200 600 0 600 0 0 200 0 200 -600 0 -600 0 0 -200z"/>
<path d="M760 2160 l0 -200 600 0 600 0 0 200 0 200 -600 0 -600 0 0 -200z"/>
<path d="M760 1360 l0 -200 600 0 600 0 0 200 0 200 -600 0 -600 0 0 -200z"/>
</g>
</svg>
